<?xml version="1.0" encoding="UTF-8" standalone="no"?>
<svg
   version="1.1"
   viewBox="0 0 17.725729 17.395729"
   width="17.725729"
   height="17.395729"
   id="svg12"
   xml:space="preserve"
   xmlns="http://www.w3.org/2000/svg"
   xmlns:svg="http://www.w3.org/2000/svg"><g
     transform="translate(1.4633166,14.025475)"
     id="g11"><ellipse
       style="fill:#ffffff;fill-rule:evenodd;stroke-width:1.05791"
       id="path18"
       cx="7.4028106"
       cy="-4.9753881"
       rx="7.7058644"
       ry="7.6724601" /><g
       clip-path="url(#SvgjsClipPath1001)"
       id="g8"
       transform="matrix(1.3155152,0,0,1.3051053,-2.3236214,2.8826064)"><g
         clip-path="url(#SvgjsClipPath1000ca824a3f-9e89-432f-b759-7e5150e49e8e)"
         id="g1"><path
           d="m 2.0287857,-7.5680267 c 0,0 0.4473649,0.1130333 0.8463373,0.2467306 0.3989724,0.1336972 0.6181511,0.2790511 0.6181511,0.2790511 0,0 -0.1845622,-0.023137 -0.7287119,-0.1822663 C 2.2202359,-7.3836411 2.0287857,-7.5680267 2.0287857,-7.5680267 Z m 4.4821258,2.3521534 -2.745121,-0.9028539 c 0,0 0.8608197,0.1714928 1.4357002,0.3429856 0.5748806,0.1716694 1.3094208,0.5598683 1.3094208,0.5598683 z m 0.3205556,1.8025289 c 0,0 -0.056693,-0.397383 -0.368948,-0.657183 -0.3122546,-0.2598001 -0.6746679,-0.2705737 -0.8493397,-0.3820175 -0.1746719,-0.1112672 -0.52013,-0.5125356 -0.8398025,-0.5460924 -0.3194959,-0.03338 -0.2970658,0.2481436 -0.1676073,0.364356 0.1296352,0.1162124 0.4895757,0.5229559 0.4895757,0.5229559 0,0 -0.064818,0.031261 -0.3889053,0.02243 -0.3240879,-0.00901 -0.5475054,-0.1587765 -0.5475054,-0.1587765 0,0 0.2099948,0.3018344 0.5831815,0.3083691 0.3733633,0.00671 0.4828644,-0.062522 0.4828644,-0.062522 0,0 -0.044683,-0.1608959 -0.2592703,-0.3620599 -0.2145867,-0.2011641 -0.3419259,-0.3329186 -0.3173764,-0.4289969 0.024549,-0.096255 0.1497692,-0.1342272 0.4000321,0.060226 0.2502629,0.1944528 0.5007024,0.4023282 0.8447477,0.5275479 0.3442219,0.1250432 0.7682736,0.3163168 0.9383535,0.7917633 z m 1.4567173,-1.8025289 2.7451206,-0.9028539 c 0,0 -0.860819,0.1714928 -1.4356998,0.3429856 -0.5748806,0.1716694 -1.3094208,0.5598683 -1.3094208,0.5598683 z m -0.3205555,1.8025289 c 0,0 0.056693,-0.397383 0.3689479,-0.657183 0.3122547,-0.2598001 0.6746679,-0.2705737 0.8493397,-0.3820175 0.1746719,-0.1112672 0.5201301,-0.5125356 0.8398025,-0.5460924 0.319496,-0.03338 0.297066,0.2481436 0.167607,0.364356 -0.129635,0.1162124 -0.4895754,0.5229559 -0.4895754,0.5229559 0,0 0.064818,0.031261 0.3889054,0.02243 0.324088,-0.00901 0.547505,-0.1587765 0.547505,-0.1587765 0,0 -0.209994,0.3018344 -0.583181,0.3083691 -0.3731869,0.00671 -0.4826879,-0.062522 -0.4826879,-0.062522 0,0 0.044507,-0.1608959 0.2590936,-0.3620599 0.2145863,-0.2011641 0.3419263,-0.3329186 0.3173763,-0.4289969 -0.02455,-0.096255 -0.149769,-0.1342272 -0.4000319,0.060226 -0.2502629,0.1944528 -0.5005258,0.4023282 -0.8447478,0.5275479 -0.3442218,0.1250432 -0.7680969,0.3163168 -0.9383534,0.7917633 z M 7.3996363,-11.889963 c 0.2691607,0 0.5340826,0.01854 0.7937061,0.05369 l -0.231012,1.835379 0.5785896,-1.777626 c 0.1344037,0.02649 0.2670413,0.05758 0.397736,0.09308 L 8.3932701,-9.7259042 9.341514,-11.5604 c 0.2451411,0.08601 0.483041,0.187565 0.71211,0.30413 l -1.2069842,2.6004738 1.5962432,-2.3837678 c 0.253265,0.153832 0.493638,0.326561 0.719704,0.515892 l -1.5504994,2.0835223 1.8431504,-1.8216033 c 0.06994,0.06694 0.138289,0.13564 0.204873,0.206109 l -1.8918961,2.1282065 2.1811901,-1.7986433 c 0.0634,0.077711 0.12469,0.1570104 0.184033,0.2380765 l -1.064633,0.8917272 1.194268,-0.7084012 c 0.04203,0.062168 0.08266,0.125573 0.122394,0.1895075 l -2.282744,1.5148236 2.456003,-1.2174046 c 0.08089,0.1488861 0.155068,0.302011 0.223064,0.4583149 l -2.164942,1.0254245 2.276916,-0.7486694 c 0.240196,0.6405813 0.371774,1.3343235 0.371774,2.0587966 0,2.8842934 -2.08158,5.2821901 -4.8242287,5.7738852 -0.039915,-0.32514755 -0.1534781,-1.2756874 -0.170963,-1.7110424 -0.021547,-0.5298439 0.2246538,-0.9404729 0.8196685,-1.1395176 0.594838,-0.1990446 1.3281422,-0.3933207 1.5596832,-0.4705013 0.231542,-0.077181 0.308723,-0.2094649 0.369302,-0.385903 0.06076,-0.176438 0.523662,-1.1905591 0.589892,-1.3173684 0.06605,-0.1268093 -0.110207,-0.2590936 -0.325147,-0.033027 -0.215117,0.22589 -0.430057,0.6614217 -0.430057,0.6614217 l 0.584595,-1.7334725 -0.218119,-0.2301288 c 0,0 -0.512889,0.1250431 -1.6114321,0.4199896 C 8.510189,-5.89478 7.8316357,-5.547379 7.8316357,-5.547379 c 0,0 0.4403002,-0.3917312 1.252021,-0.6543571 0.8118974,-0.2624494 1.7447763,-0.4886927 1.7447763,-0.4886927 l -0.448248,-0.3512865 c -1.3609927,0.2260667 -2.0960627,0.8318549 -2.0960627,0.8318549 0.7915867,-0.4482479 2.2212817,-0.5854775 2.2212817,-0.5854775 0,0 -0.6421704,0.1573636 -1.5953595,0.4563722 -0.9531891,0.2988319 -1.3569301,0.6541805 -1.3569301,0.6541805 0,0 0.3754827,-0.4724441 0.6946253,-0.7068117 0.318966,-0.234191 1.0257777,-0.5452093 1.0257777,-0.5452093 C 8.0619411,-6.5530225 7.645837,-5.983617 7.645837,-5.983617 7.7509227,-6.2299944 8.1790366,-6.6944909 8.7767004,-6.9286818 9.374541,-7.1628728 10.036846,-7.1992554 10.036846,-7.1992554 10.008587,-7.3285373 9.8874298,-7.4657669 9.8874298,-7.4657669 c 0,0 -0.835917,0.084775 -1.5388432,0.4523101 -0.7027496,0.367535 -0.9489503,0.9369405 -0.9489503,0.9369405 0,0 -0.2463774,-0.5694055 -0.949127,-0.9369405 -0.7027495,-0.367535 -1.5388432,-0.4523101 -1.5388432,-0.4523101 0,0 -0.1211576,0.1372296 -0.1494159,0.2665115 0,0 0.6623048,0.036383 1.2601453,0.2705736 0.5976638,0.2341909 1.0257777,0.6986874 1.1308634,0.9450648 0,0 -0.4161041,-0.5694055 -1.6276804,-0.9531891 0,0 0.7068118,0.3110183 1.0257778,0.5452093 0.3191426,0.2343676 0.6948019,0.7068117 0.6948019,0.7068117 0,0 -0.4039177,-0.3553486 -1.3571067,-0.6541805 -0.9531892,-0.2990086 -1.5953599,-0.4563722 -1.5953599,-0.4563722 0,0 1.4296953,0.1372296 2.2212821,0.5854775 0,0 -0.7348935,-0.6057882 -2.0960623,-0.8318549 l -0.448248,0.3512865 c 0,0 0.9328785,0.2262433 1.7447759,0.4886927 0.8117208,0.2626259 1.252021,0.6543571 1.252021,0.6543571 0,0 -0.6785534,-0.347401 -1.7770963,-0.6421707 C 4.0918211,-6.4844961 3.5789322,-6.6095392 3.5789322,-6.6095392 l -0.218119,0.2301288 0.5845943,1.7334725 c 0,0 -0.2149399,-0.4355317 -0.4300565,-0.6614217 -0.21494,-0.2260667 -0.3912014,-0.093782 -0.3251475,0.033027 0.06623,0.1268093 0.5291373,1.1409304 0.5898928,1.3173684 0.060579,0.1764381 0.1377594,0.3087224 0.3693011,0.385903 0.2315418,0.077181 0.9648457,0.2714567 1.5596837,0.4705013 0.5950147,0.1990447 0.8412155,0.6096737 0.8196685,1.1395176 -0.017485,0.435355 -0.131048,1.38589485 -0.170963,1.7110424 -2.7426484,-0.4916951 -4.8242283,-2.8895918 -4.8242283,-5.7738852 0,-0.7244731 0.1315779,-1.4182153 0.3717738,-2.0587966 L 4.1824244,-7.3340124 2.0173058,-8.3594369 C 2.0853024,-8.5157408 2.1594805,-8.6688657 2.24037,-8.8177518 L 4.6963729,-7.6003472 2.413629,-9.1151708 C 2.453367,-9.1791058 2.493989,-9.24251 2.5360229,-9.3046783 L 3.730291,-8.5962771 2.665658,-9.4880043 c 0.059343,-0.081066 0.1206278,-0.160366 0.1840325,-0.2382531 L 5.030881,-7.9274375 3.1389852,-10.055644 c 0.066584,-0.07047 0.1349336,-0.139172 0.204873,-0.206286 l 1.8431501,1.8217803 -1.5503231,-2.0835223 c 0.2260667,-0.189331 0.4664392,-0.36206 0.719528,-0.515892 L 5.9524561,-8.6557962 4.7454718,-11.25627 c 0.2290691,-0.116565 0.466969,-0.218119 0.7121101,-0.30413 l 0.9482439,1.8344958 -0.5453859,-1.9595388 c 0.1306948,-0.0355 0.2633324,-0.06658 0.3977361,-0.09308 l 0.5787661,1.777626 -0.2311885,-1.835379 c 0.2596235,-0.03515 0.5245454,-0.05369 0.7938827,-0.05369 z m -1.8549834,3.933914 h 3.533e-4 c 0.00795,-0.1849156 0.1261028,-0.3329186 0.2733994,-0.3429857 v -0.00106 c -0.1472966,-0.00989 -0.2654518,-0.15807 -0.2733994,-0.3429855 h -7.065e-4 c -0.00795,0.1849155 -0.1261028,0.3330951 -0.2735761,0.3429855 v 0.00106 c 0.1474733,0.010067 0.2656284,0.1580701 0.2735761,0.3429857 z m 0.6052583,-1.2793964 h 1.766e-4 c 0.00601,-0.1388191 0.094666,-0.2500863 0.2054028,-0.2575041 v -8.83e-4 C 6.2447533,-9.5012504 6.1560928,-9.6125176 6.1500878,-9.7513367 H 6.149558 c -0.006,0.1388191 -0.094665,0.2500863 -0.2054028,0.2575042 v 8.83e-4 c 0.1107373,0.00742 0.1993979,0.118685 0.2054028,0.2575041 z M 5.4037145,-10.56606 h 3.532e-4 c 0.00583,-0.138819 0.094665,-0.250086 0.2054028,-0.257504 v -8.83e-4 c -0.1107374,-0.0074 -0.1995745,-0.118685 -0.2054028,-0.257504 h -7.065e-4 c -0.006,0.138819 -0.094665,0.250086 -0.2054027,0.257504 v 8.83e-4 c 0.1107373,0.0074 0.1993979,0.118685 0.2054027,0.257504 z m -1.3371493,-0.0627 c 0,0 0.2839963,0.265098 0.5708184,0.624862 0.2866456,0.3597644 0.4788023,0.7114041 0.4788023,0.7114041 0,0 -0.7682736,-0.7709231 -1.0496207,-1.3362661 z m 8.7037448,3.0607313 c 0,0 -0.447365,0.1130333 -0.846337,0.2467306 -0.398972,0.1336972 -0.618151,0.2790511 -0.618151,0.2790511 0,0 0.184562,-0.023137 0.728888,-0.1822663 0.54415,-0.1591298 0.7356,-0.3435154 0.7356,-0.3435154 z M 9.254443,-7.956049 H 9.2540898 C 9.2461421,-8.1409646 9.1279869,-8.2889676 8.9806903,-8.2990347 v -0.00106 c 0.1472966,-0.00989 0.2654518,-0.15807 0.2733995,-0.3429855 h 8.83e-4 c 0.00795,0.1849155 0.1259262,0.3330951 0.2733995,0.3429855 v 0.00106 C 9.380899,-8.2889676 9.2629205,-8.1409646 9.2549728,-7.956049 Z M 8.6493613,-9.2354454 h -3.532e-4 c -0.006,-0.1388191 -0.094665,-0.2500863 -0.2054028,-0.2575041 v -8.83e-4 c 0.1107373,-0.00742 0.1993979,-0.1186851 0.2054028,-0.2575042 h 5.298e-4 c 0.006,0.1388191 0.094665,0.2500863 0.2054028,0.2575042 v 8.83e-4 c -0.1107373,0.00742 -0.1993979,0.118685 -0.2054028,0.2575041 z M 9.3953815,-10.56606 h -1.766e-4 c -0.00601,-0.138819 -0.094842,-0.250086 -0.2054029,-0.257504 v -8.83e-4 c 0.1105608,-0.0074 0.1993979,-0.118685 0.2054029,-0.257504 h 5.298e-4 c 0.006,0.138819 0.094665,0.250086 0.2054028,0.257504 v 8.83e-4 c -0.1107373,0.0074 -0.1993979,0.118685 -0.2054028,0.257504 z m 1.3371495,-0.0627 c 0,0 -0.283997,0.265098 -0.570819,0.624862 -0.2866452,0.3597644 -0.4788019,0.7114041 -0.4788019,0.7114041 0,0 0.7682739,-0.7709231 1.0496209,-1.3362661 z m -3.3328947,5.3346445 c 0.3025408,0 0.5476819,0.084245 0.5476819,0.1880945 0,0.104026 -0.2451411,0.1882712 -0.5476819,0.1882712 -0.3025409,0 -0.5478586,-0.084245 -0.5478586,-0.1882712 0,-0.1038493 0.2453177,-0.1880945 0.5478586,-0.1880945"
           fill="#225777"
           fill-rule="evenodd"
           id="path1"
           style="fill:#003ca5;fill-opacity:1" /></g><g
         clip-path="url(#SvgjsClipPath1000ca824a3f-9e89-432f-b759-7e5150e49e8e)"
         id="g2"
         style="fill:#ff0000;fill-opacity:1"><path
           d="m 11.446937,-4.930464 h 1.716694 c -0.04327,0.2288925 -0.09979,0.4531931 -0.168667,0.6720186 h -1.850391 c 0.08866,-0.2031068 0.206639,-0.46379 0.302364,-0.6720186 z m -0.49717,0 h 0.06128 c -0.09325,0.1547144 -0.157364,0.2845261 -0.157364,0.2845261 z m -7.1617231,0 h 0.061285 l 0.096078,0.2845261 c 0,0 -0.064111,-0.1298117 -0.157363,-0.2845261 z m -2.1525789,0 h 1.7166941 c 0.095725,0.2082286 0.2137036,0.4689118 0.3023642,0.6720186 H 1.8041319 C 1.7352522,-4.4772709 1.6787355,-4.7015715 1.635465,-4.930464"
           fill="#173054"
           fill-rule="evenodd"
           id="path2"
           style="fill:#ff0000;fill-opacity:1" /></g><g
         clip-path="url(#SvgjsClipPath1000ca824a3f-9e89-432f-b759-7e5150e49e8e)"
         id="g3"
         style="fill:#ff0000"><path
           d="m 10.920449,-3.7543873 h 1.889776 c -0.09749,0.231895 -0.209288,0.4563722 -0.334508,0.6720186 H 9.0382667 c 0.016955,-0.00618 0.034087,-0.012186 0.051748,-0.018191 0.594838,-0.1990446 1.3281423,-0.3933207 1.5596833,-0.4705013 0.131755,-0.043977 0.213528,-0.1057922 0.270751,-0.1833263 z m -8.9315782,0 h 1.8897764 c 0.057223,0.077534 0.1389958,0.1393489 0.2707502,0.183326 0.2315418,0.077181 0.9648457,0.2714567 1.5596837,0.4705013 0.017661,0.006 0.034793,0.01201 0.051748,0.018191 H 2.3235555 C 2.1981591,-3.2980151 2.0863621,-3.5224923 1.9888708,-3.7543873"
           fill="#3a868f"
           fill-rule="evenodd"
           id="path3"
           style="fill:#ff0000;fill-opacity:1" /></g><g
         id="g19"
         transform="matrix(0.01275275,0,0,0.01258018,6.1028266,-10.464474)">
	<path
   fill="#ef3e42"
   d="m 105.899,237.08 c 6.251,-6.24 20.365,-17.04 33.875,-21.12 15.525,-4.559 55.651,-11.762 64.928,-52.8 7.461,-32.16 -6.451,-68.401 -8.064,-84.722 -1.411,-14.158 2.822,-46.799 3.629,-51.599 0.807,-6.719 -5.445,-9.12 -9.479,-7.679 -6.854,2.639 -21.574,7.438 -38.511,7.679 C 134.13,27.08 111.746,13.88 105.899,5 100.253,13.88 77.871,27.08 59.723,26.839 42.785,26.599 28.066,21.799 21.21,19.16 c -4.233,-1.441 -10.485,0.959 -9.476,7.679 0.604,4.8 5.04,37.441 3.629,51.599 C 13.75,94.759 -0.163,131 7.297,163.16 c 9.276,41.038 49.402,48.241 64.727,52.8 13.51,4.08 27.625,14.88 33.875,21.12"
   id="path1-9" />
	<path
   fill="none"
   stroke="#ffffff"
   stroke-width="2.4198"
   stroke-linecap="round"
   d="m 105.899,228.679 c 7.865,-8.16 24.599,-16.799 35.69,-19.679 30.648,-8.16 48.998,-21.84 55.652,-42.722 9.678,-29.76 -3.629,-63.358 -6.454,-85.439 -1.813,-15.12 1.815,-44.639 2.622,-48.24 1.209,-7.201 0.402,-8.161 -5.646,-6 -6.047,2.16 -23.188,6.481 -38.713,6 C 134.13,32.12 116.587,23 105.899,14.358 95.212,23 77.871,32.12 62.95,32.599 c -15.526,0.481 -32.867,-3.84 -38.917,-6 -5.847,-2.161 -6.856,-1.201 -5.445,6 0.605,3.602 4.437,33.12 2.42,48.24 -2.622,22.081 -16.131,55.679 -6.453,85.439 6.858,20.882 25.005,34.562 55.856,42.722 11.09,2.88 27.625,11.519 35.488,19.679 z"
   id="path2-3" />
	<path
   fill="#ffffff"
   d="m 111.344,35.719 c 0.2,2.161 0.604,4.321 0.402,6.96 -0.604,-1.679 -2.218,-3.599 -4.233,-3.599 -2.42,0 -4.436,1.679 -5.445,3.599 -0.403,3.361 -0.403,6.481 0.202,9.839 1.411,-0.479 2.622,-1.919 4.034,-2.639 3.427,-2.161 9.071,-0.481 10.485,-5.281 l 0.199,-0.241 c 0.604,1.2 -0.199,2.882 -0.604,4.321 -3.426,5.759 -11.695,0.96 -14.316,7.201 0.202,4.08 -0.604,8.639 0.606,12.479 0.604,0.722 1.612,0.481 2.418,0.241 5.445,-1.679 8.469,-6.96 9.88,-11.76 h 0.203 c -0.203,2.88 -0.203,6.241 -0.807,9.121 -6.05,3.839 -12.099,7.438 -18.148,10.559 2.822,-5.519 0.807,-12.96 1.411,-19.438 -0.404,-3.839 -0.404,-7.2 -0.404,-11.04 0,-0.722 -0.807,-1.441 -1.411,-1.92 -0.605,-0.24 -1.412,-0.24 -2.017,-0.481 0.403,-0.719 1.411,-1.438 2.42,-1.92 4.637,-2.88 9.476,-5.04 14.114,-7.679 1.011,-0.242 0.606,1.2 1.011,1.678"
   id="path3-0" />
	<path
   fill="#ffffff"
   d="m 179.297,46.281 c 1.411,4.318 0,9.118 -0.405,13.438 -1.208,10.08 -1.613,20.88 1.411,30 0.203,0.719 -0.807,0.719 -1.208,0.481 -2.219,-1.201 -3.228,-3.842 -4.233,-6.241 -2.421,-4.321 -3.832,-9.361 -6.656,-13.679 l -0.2,0.479 0.2,20.161 c 0.202,0.719 1.009,1.2 1.613,1.438 -1.613,1.682 -3.832,2.642 -5.847,3.602 0,-0.96 0.604,-1.92 0.604,-3.121 0,-10.559 0,-21.361 -0.401,-31.679 -0.405,-1.441 -2.218,-1.682 -3.43,-2.161 1.613,-1.441 3.629,-2.642 5.647,-3.602 0.807,-0.238 1.411,0.481 1.613,1.201 2.218,4.321 3.831,9.12 6.249,13.441 0.202,0 0.202,-0.241 0.404,-0.241 0,-6.96 1.209,-13.679 0.604,-20.639 -0.202,-1.441 -2.822,-1.92 -2.016,-3.602 1.007,-0.719 2.016,-1.679 3.427,-1.2 1.213,10e-4 1.817,1.202 2.624,1.924"
   id="path4-9" />
	<path
   fill="#ffffff"
   d="m 89.163,46.281 c -0.403,0.96 -0.807,2.158 -1.008,3.118 l 0.201,27.361 c 0.202,0.719 0,1.441 0.807,2.161 l 1.21,0.719 c -1.814,1.682 -4.638,2.879 -6.856,4.08 0,-0.241 -0.201,-0.719 0.203,-0.719 L 84.123,80.84 83.921,66.68 c -1.008,-1.201 -2.016,0.241 -3.025,0.481 -1.612,1.438 -3.832,2.158 -5.242,3.599 0,4.559 -0.404,9.599 0.403,13.92 0.202,0.96 1.007,1.441 1.814,1.679 h 0.807 c -2.621,2.16 -5.646,3.842 -8.67,5.04 0.605,-1.198 1.008,-2.88 1.21,-4.318 L 70.614,60.439 c 0,-1.198 -1.412,-1.679 -2.017,-2.398 2.218,-1.92 5.042,-3.361 7.663,-4.321 -1.816,3.361 -0.403,8.401 -0.605,12.481 0,0.479 0.202,0.479 0.403,0.719 2.621,-0.719 4.839,-2.88 7.46,-4.081 L 83.922,61.88 83.721,52.519 C 83.518,51.8 82.914,51.081 82.107,50.84 h -0.604 c 0,-0.959 1.008,-0.719 1.411,-1.441 2.015,-0.72 3.83,-2.64 6.249,-3.118"
   id="path5-2" />
	<path
   fill="#ffffff"
   d="m 64.16,56.839 c 0.806,4.321 0.201,8.88 2.218,12.479 -3.227,-1.679 -2.622,-5.519 -5.646,-7.438 -0.807,-0.481 -1.411,0.479 -1.814,0.959 -0.403,11.041 0.403,21.121 0.604,31.679 0.403,0.722 1.007,1.201 1.613,1.441 h 1.209 c -3.023,2.16 -6.654,3.599 -9.879,5.519 3.226,-3.358 1.612,-8.639 1.814,-12.719 l -0.403,-22.08 c -0.203,-0.479 0,-1.201 -0.604,-1.679 -2.623,0.719 -2.824,4.08 -3.831,6.241 -0.606,3.118 -0.807,6.719 -3.428,8.879 H 45.61 C 48.029,75.799 46.013,69.799 47.424,65 52.869,62.12 58.112,58.519 63.757,55.88 l 0.403,0.959"
   id="path6-1" />
	<path
   fill="#ffffff"
   d="m 152.277,67.398 c -2.622,0.722 -3.429,3.602 -3.831,5.762 -1.212,7.679 -2.019,17.04 0.402,24.479 0.604,1.2 1.411,3.602 3.429,3.361 2.418,-0.719 2.62,-3.361 3.427,-5.521 1.613,-7.92 1.815,-17.278 0.202,-25.438 -0.806,-1.202 -1.815,-2.88 -3.629,-2.643 m 6.854,0.241 c 4.033,9.602 3.43,21.602 -0.807,30.96 -1.411,2.401 -3.225,5.04 -6.047,5.521 -2.221,0.479 -4.438,-0.481 -6.049,-1.919 -4.236,-6.722 -5.043,-16.081 -3.632,-24.241 1.211,-5.521 3.227,-12.96 10.285,-14.161 2.823,-0.24 4.839,1.68 6.25,3.84 z"
   id="path7-4" />
	<path
   fill="#ffffff"
   d="m 140.581,70.519 c -0.202,1.441 -1.209,2.88 -1.209,4.321 v 16.08 c 0,5.759 0,11.519 0.402,16.799 0.404,0.719 1.009,1.201 1.613,1.441 l -0.202,0.479 c -2.42,1.682 -4.838,3.12 -7.461,4.321 1.212,-2.161 1.614,-5.04 1.411,-8.161 L 134.734,84.2 134.329,76.759 c -0.199,-0.719 -1.006,-1.201 -1.613,-1.679 2.019,-1.682 4.438,-2.401 6.656,-4.08 0.402,0 0.807,-0.481 1.209,-0.481"
   id="path8" />
	<path
   fill="#ffffff"
   d="m 130.299,77.479 c 0.807,4.08 0.401,8.401 0.807,12.241 -2.019,-2.161 -1.01,-5.759 -4.034,-7.201 -1.009,-0.479 -1.613,0.481 -2.218,1.201 l -0.202,0.96 v 20.16 l 0.202,10.8 c 0.402,0.96 1.209,1.682 2.218,2.16 -2.218,1.92 -4.638,3.361 -7.258,4.081 l 0.604,-3.361 V 101 L 120.013,86.599 C 119.612,85.88 118.805,85.88 118.2,86.358 115.577,89 116.181,93.08 114.369,95.96 h -0.203 c 0.402,-3.121 0,-6.719 0,-9.602 l 0.402,-0.96 c 4.841,-2.639 9.881,-5.759 14.721,-8.398 0.402,0 1.01,0.241 1.01,0.479"
   id="path9" />
	<path
   fill="#ffffff"
   d="m 100.052,94.519 c -1.21,2.161 -1.21,4.802 -1.816,7.201 l -1.208,6.481 -3.428,18.719 c -1.613,4.559 -0.807,10.799 -4.234,14.401 0,-3.123 -1.009,-5.763 -1.614,-8.883 l -5.04,-19.198 c -0.606,-2.401 -1.21,-5.521 -4.235,-6.241 v -0.241 c 2.822,-1.679 5.444,-3.839 8.468,-4.799 -1.21,1.438 -0.807,3.839 -0.604,5.519 0.807,5.521 2.419,10.562 3.629,15.842 0.203,0 0.403,0.238 0.606,0.238 1.411,-4.559 1.612,-9.599 2.621,-14.16 0.403,-3.118 1.814,-6.719 0.201,-9.599 -0.201,-0.479 -0.807,-0.96 -1.21,-0.96 2.017,-1.679 4.638,-3.12 7.259,-4.321 h 0.605"
   id="path10" />
	<path
   fill="#ffffff"
   d="m 175.668,108.92 c 0.804,1.438 0.804,3.839 0,5.519 -2.421,7.682 -5.85,14.883 -8.47,22.562 -0.202,3.84 -0.202,8.398 0.199,12.24 0,0.72 1.01,1.198 1.414,1.92 -2.42,1.92 -5.444,3.118 -8.067,5.038 0.405,-1.68 1.411,-3.118 1.613,-5.038 0,-4.562 0,-9.36 -0.604,-13.682 -2.218,-4.8 -4.638,-9.599 -7.258,-14.398 l -1.613,-1.2 c 2.62,-1.679 5.04,-3.599 7.862,-4.559 -0.402,1.679 -1.411,4.318 -0.199,6.238 1.61,2.88 2.417,5.763 4.03,8.398 0.808,0.241 0.808,-0.957 1.411,-1.197 1.816,-6 5.043,-11.281 5.647,-17.519 0,-2.161 -1.009,-4.321 -3.024,-5.04 -0.202,-0.481 0.202,-0.96 0.202,-1.201 1.611,-0.96 3.629,-0.719 5.242,0 0.808,0.24 1.008,1.2 1.615,1.919"
   id="path11-5" />
	<path
   fill="#ffffff"
   d="m 73.435,117.799 c 0,8.639 0,17.281 0.403,25.919 0.404,0.72 0.201,1.441 1.21,1.68 1.008,0.481 1.613,-0.238 2.419,-0.72 3.227,-3.357 1.412,-8.879 5.244,-12 h 0.805 c -1.208,2.88 -1.411,6 -1.208,9.121 -0.203,0.96 0,2.16 -0.203,3.12 -4.032,2.639 -8.468,5.04 -12.703,7.438 l -0.202,-0.241 0.202,-4.317 -0.202,-21.84 -0.2,-9.36 c -0.606,-1.438 -2.017,-2.161 -3.428,-2.161 3.226,-1.92 6.049,-4.318 9.275,-5.519 -1.613,2.402 -1.209,6.001 -1.412,8.88"
   id="path12-0" />
	<path
   fill="#ffffff"
   d="m 148.646,124.281 c 0,1.438 -0.807,2.879 -0.807,4.559 v 12.719 l 0.405,18.72 c 0.202,0.962 1.009,1.44 1.813,1.92 -2.218,1.682 -4.233,2.882 -6.653,3.839 0.604,-2.157 0.202,-4.077 0.202,-6.237 l -0.202,-17.281 c -0.199,-0.24 -0.402,0 -0.604,0.241 -1.613,4.562 -2.822,9.12 -4.638,13.679 -0.807,-0.24 -1.411,-1.198 -1.813,-2.16 -1.411,-2.161 -2.218,-4.56 -3.831,-6.72 -0.405,0 -0.807,0.241 -0.807,0.479 0.401,7.682 -0.203,14.401 0.401,22.08 0.604,0.481 1.411,0.963 1.816,1.683 -2.016,1.679 -4.639,2.879 -7.059,4.08 0.404,-1.682 1.411,-3.361 1.411,-5.521 l -0.199,-15.84 -0.405,-13.438 c -0.402,-1.441 -1.813,-2.16 -3.024,-2.642 1.815,-1.198 3.629,-2.88 5.847,-3.117 2.218,3.599 4.236,7.438 6.454,11.037 0.807,0.481 0.807,-0.72 1.209,-0.96 1.411,-6 3.227,-11.76 5.043,-17.76 1.609,-1.681 3.425,-2.4 5.441,-3.36"
   id="path13-3" />
	<path
   fill="#ffffff"
   d="m 43.592,128.599 c -2.621,3.358 -2.218,9.12 -1.008,12.96 -1.613,0 -2.42,-1.441 -3.428,-2.398 -0.604,0 -1.613,0.238 -2.017,-0.24 0.606,-0.963 1.009,-2.16 1.009,-3.12 0,-1.683 -0.605,-3.121 -2.218,-3.843 -2.017,-1.197 -4.84,-0.957 -6.856,0.481 -1.614,1.679 -2.824,3.599 -1.816,5.76 2.824,6.722 11.494,8.882 14.922,15.602 2.017,5.04 1.411,11.521 -1.814,15.839 -2.823,3.361 -7.058,5.281 -11.897,4.56 -3.024,-0.72 -5.847,-3.118 -6.653,-6 -1.008,-3.118 0.201,-5.76 2.419,-7.438 1.613,-1.201 4.034,-1.201 5.445,0 0.807,0.48 1.21,1.2 1.21,2.16 -0.403,0.719 -1.21,-0.241 -1.814,0.24 -0.807,0.479 -1.816,1.198 -2.017,1.92 0,1.438 -0.201,2.16 0.403,3.118 1.411,1.682 3.226,2.16 5.445,1.919 2.621,-0.716 5.443,-3.599 5.847,-6.716 1.21,-11.284 -13.51,-12.963 -15.93,-22.562 -1.21,-4.562 0.403,-8.883 4.034,-11.281 3.629,-2.398 8.267,-2.16 12.098,-0.479 1.209,-0.963 3.023,-1.92 4.637,-1.441 v 0.959"
   id="path14-7" />
	<path
   fill="#ffffff"
   d="m 56.498,131 -0.807,0.24 c -0.604,4.318 -1.814,9.84 -1.814,13.92 1.613,-0.722 3.428,-1.2 4.436,-2.642 L 56.498,131 m 1.814,-14.639 c -1.008,0.96 -1.008,2.639 -1.008,3.84 3.025,10.078 5.444,20.398 8.468,30.478 0.203,1.201 1.614,1.92 1.413,3.121 -2.42,1.44 -4.84,3.12 -7.663,4.08 2.017,-3.12 0.807,-6.479 -0.201,-9.602 -0.606,-1.92 -1.009,-1.438 -2.017,-0.957 -1.21,0.479 -2.823,1.438 -3.428,1.679 -1.21,0.479 -1.21,2.16 -1.411,3.117 -0.403,1.92 -2.42,7.204 0.604,8.643 0.604,0 0.807,0.24 1.21,0 -2.621,2.642 -6.453,4.32 -9.477,6 0.403,-1.438 1.21,-2.643 1.613,-3.84 2.822,-13.441 4.839,-27.361 7.46,-40.8 1.009,-2.16 1.816,-5.04 4.437,-5.759 z"
   id="path15" />
	<path
   fill="#ffffff"
   d="m 113.765,148.519 c -1.01,0 -2.221,0.722 -2.421,1.68 -0.404,4.562 -0.202,9.839 0,14.642 0.2,0.719 1.007,0.719 1.614,0.719 1.813,0 3.426,-1.2 4.233,-2.639 1.41,-4.08 2.622,-9.599 0.202,-13.441 -1.009,-0.72 -2.217,-0.961 -3.628,-0.961 m 9.475,1.2 c 2.016,4.318 0.604,9.84 -1.816,13.201 -1.006,2.16 -4.436,2.639 -3.831,5.519 1.414,5.76 3.024,11.76 8.27,15.361 1.209,0.719 2.822,0.719 4.233,0.479 0,1.44 -1.613,2.16 -2.822,2.4 -6.656,0.241 -10.082,-6.719 -12.503,-11.519 -1.006,-2.4 -1.813,-4.802 -2.42,-6.962 l -0.604,-0.479 -0.402,0.479 c -0.202,4.802 0.2,9.839 0,14.642 0.402,0.719 1.614,0.719 1.614,1.438 -2.019,1.682 -4.236,2.882 -6.654,3.839 1.007,-4.317 -0.204,-8.877 0.2,-13.438 -0.2,-7.2 -0.2,-15.12 -0.403,-22.562 -0.403,-0.716 -1.008,-1.438 -1.814,-1.438 h -1.208 c 1.208,-1.679 3.426,-2.642 5.242,-3.599 3.225,-1.92 8.064,-3.12 11.494,-0.963 1.409,0.963 2.618,2.402 3.424,3.602 z"
   id="path16" />
	<path
   fill="#ffffff"
   d="m 90.979,165.8 -0.606,1.919 c -0.807,5.041 -2.017,9.84 -2.218,14.88 2.218,-0.24 4.033,-1.679 6.049,-2.88 0.201,-0.719 0.201,-1.2 0,-1.682 -1.21,-4.077 -1.613,-8.398 -3.225,-12.237 m 6.653,5.04 4.032,17.277 c 0,0.963 1.21,1.441 1.613,1.92 -2.017,1.682 -4.234,2.642 -6.25,3.364 1.008,-3.123 -0.606,-6.481 -1.413,-9.364 -0.201,-0.957 -1.411,-0.479 -2.016,-0.237 -2.42,1.2 -4.84,2.398 -6.856,4.08 -0.403,3.36 -1.613,6.719 -1.21,10.08 0.403,0.96 1.21,1.2 2.017,1.2 l -0.202,0.479 c -2.822,1.92 -5.847,3.84 -8.872,5.04 0.201,-1.2 1.411,-1.919 1.814,-3.12 2.218,-5.759 2.822,-12 4.033,-18.237 1.613,-8.643 3.63,-17.284 5.042,-25.92 1.007,-2.642 1.613,-5.284 4.032,-7.203 0.607,7.202 3.026,13.681 4.236,20.641 z"
   id="path17" />
	<path
   fill="#ef3e42"
   d="m 122.031,237.321 c 1.007,0 2.016,0 2.016,-1.441 0,-0.96 -1.009,-1.201 -1.815,-1.201 h -1.813 v 2.643 h 1.612 m -1.613,4.558 h -1.212 v -8.16 h 3.228 c 1.815,0 2.822,0.719 2.822,2.397 0,1.441 -0.807,2.161 -2.016,2.161 l 2.218,3.602 h -1.411 l -2.218,-3.602 h -1.411 z m 1.613,1.92 c 3.225,0 5.847,-2.64 5.847,-6 0,-3.361 -2.622,-6 -5.847,-6 -3.227,0 -5.85,2.639 -5.85,6 0.001,3.36 2.624,6 5.85,6 z m -7.26,-6 c 0,-4.08 3.228,-7.201 7.261,-7.201 3.831,0 7.258,3.121 7.258,7.201 0,4.08 -3.427,7.2 -7.258,7.2 -4.034,0 -7.261,-3.12 -7.261,-7.2 z"
   id="path18-2" />
	<path
   fill="#ffffff"
   d="m 107.513,102.201 -0.607,0.238 c -0.806,4.08 -1.813,9.602 -1.813,13.682 1.411,-0.722 3.227,-1.2 4.436,-2.642 l -2.016,-11.278 m 4.637,3.358 c 1.411,5.281 2.418,11.041 4.031,16.321 0.202,0.719 1.411,1.2 1.411,1.679 -2.218,1.682 -4.635,3.12 -7.056,4.08 0.402,-1.679 0.807,-3.839 0.604,-5.759 l -1.009,-3.599 c -0.2,-0.722 -1.007,-0.481 -1.611,-0.241 -1.413,1.438 -4.033,1.679 -5.042,3.599 0,2.879 -1.411,5.281 -0.805,8.161 0.403,0.96 1.612,0.96 2.822,0.96 -3.226,1.919 -6.049,4.08 -9.477,5.519 h 0.203 c 3.629,-8.64 4.032,-18.479 6.25,-27.358 1.814,-7.441 1.814,-15.599 5.646,-22.321 l 0.404,-0.241 c -0.202,6.721 2.621,12.721 3.629,19.2 z"
   id="path19" />
</g><g
         clip-path="url(#SvgjsClipPath1000ca824a3f-9e89-432f-b759-7e5150e49e8e)"
         id="g4"
         style="fill:#ff0000"><path
           d="m 8.401571,-2.5783105 h 3.745643 c -0.173259,0.2382531 -0.363826,0.4629069 -0.570112,0.6720186 H 8.2728189 c -8.83e-4,-0.018898 -0.00177,-0.037266 -0.00247,-0.05475 -0.00936,-0.231012 0.032144,-0.4392406 0.1312247,-0.6172681 z m -5.7495123,0 H 6.397525 c 0.099081,0.1780275 0.1405851,0.3862561 0.1312246,0.6172681 -7.065e-4,0.017485 -0.00159,0.035853 -0.00247,0.05475 H 3.2219941 C 3.0158848,-2.1154036 2.825141,-2.3400574 2.6520587,-2.5783105"
           fill="#173054"
           fill-rule="evenodd"
           id="path4"
           style="fill:#ff0000;fill-opacity:1" /></g><g
         clip-path="url(#SvgjsClipPath1000ca824a3f-9e89-432f-b759-7e5150e49e8e)"
         id="g5"
         style="fill:#ff0000"><path
           d="m 8.3130871,-1.4022338 h 2.6988479 c -0.333802,0.2613896 -0.696568,0.48727973 -1.0826475,0.67219524 H 8.3844394 C 8.3604198,-0.93985672 8.3344574,-1.1791695 8.3130871,-1.4022338 Z m -4.5259263,0 h 2.6988481 c -0.02137,0.2230643 -0.047333,0.46237708 -0.071352,0.67219524 H 4.8698085 C 4.4837289,-0.91495407 4.1209625,-1.1408442 3.7871608,-1.4022338"
           fill="#3a868f"
           fill-rule="evenodd"
           id="path5"
           style="fill:#ff0000;fill-opacity:1" /></g><g
         clip-path="url(#SvgjsClipPath1000ca824a3f-9e89-432f-b759-7e5150e49e8e)"
         id="g6"><path
           d="m 7.3996363,-12.562158 c 3.5390037,0 6.4081077,2.7150962 6.4081077,6.0642393 0,0.7152891 -0.131224,1.4014369 -0.37142,2.0384859 0.129105,-0.499996 0.197985,-1.0241882 0.197985,-1.5644524 0,-3.4432786 -2.791394,-6.2346728 -6.2346727,-6.2346728 -3.4434552,0 -6.2348493,2.7913942 -6.2348493,6.2346728 0,0.5402642 0.06888,1.0644564 0.197985,1.5644524 -0.2401959,-0.637049 -0.37142055,-1.3231968 -0.37142055,-2.0384859 0,-3.3491431 2.86910445,-6.0642393 6.40828485,-6.0642393"
           fill="#173054"
           fill-rule="evenodd"
           id="path6"
           style="fill:#003ca5;fill-opacity:1" /></g></g><g
       id="g9" /></g><defs
     id="defs12"><clipPath
       id="SvgjsClipPath1001"><path
         d="M 0.99135145,-12.562158 H 13.807744 V -0.25 H 0.99135145 Z"
         id="path11" /></clipPath><clipPath
       id="SvgjsClipPath1000ca824a3f-9e89-432f-b759-7e5150e49e8e"><path
         d="M 0.99135145,-12.562158 H 13.807744 V -0.25 H 0.99135145 Z"
         id="path12" /></clipPath></defs><path
     style="fill:none;fill-opacity:1;stroke-width:4.1;stroke-dasharray:none;paint-order:fill markers stroke"
     d="m 8.3270728,15.704289 c 1.6939102,1.298137 1.6939102,1.298137 1.6939102,1.298137 z"
     id="path13" /><path
     style="fill:#ff0000;fill-opacity:1;stroke-width:12;stroke-dasharray:none;paint-order:stroke fill markers"
     d="M 10.242616,16.527498 Z"
     id="path14" /></svg>
