<?xml version="1.0" encoding="UTF-8" standalone="no"?>
<svg version="1.1" viewBox="0 0 17.725729 17.395729" width="17.725729" height="17.395729" id="svg12"
    xml:space="preserve" sodipodi:docname="finlogo.svg" xmlns:inkscape="http://www.inkscape.org/namespaces/inkscape"
    xmlns:sodipodi="http://sodipodi.sourceforge.net/DTD/sodipodi-0.dtd" xmlns="http://www.w3.org/2000/svg"><sodipodi:namedview
     id="namedview1"
     pagecolor="#ffffff"
     bordercolor="#000000"
     borderopacity="0.25"
     inkscape:showpageshadow="2"
     inkscape:pageopacity="0.0"
     inkscape:pagecheckerboard="0"
     inkscape:deskcolor="#d1d1d1"
     inkscape:export-bgcolor="#ffffff00"
     inkscape:zoom="31.583728"
     inkscape:cx="12.854721"
     inkscape:cy="9.514393"
     inkscape:window-width="1920"
     inkscape:window-height="991"
     inkscape:window-x="-9"
     inkscape:window-y="-9"
     inkscape:window-maximized="1"
     inkscape:current-layer="g6" /><g
     transform="translate(1.4633166,14.025475)"
     id="g11"><ellipse
       style="fill:#ffffff;fill-rule:evenodd;stroke-width:1.05791"
       id="path18"
       cx="7.4028106"
       cy="-4.9753881"
       rx="7.7058644"
       ry="7.6724601" /><g
       clip-path="url(#SvgjsClipPath1001)"
       id="g8"
       transform="matrix(1.3155152,0,0,1.3051053,-2.3236214,2.8826064)"><g
         clip-path="url(#SvgjsClipPath1000ca824a3f-9e89-432f-b759-7e5150e49e8e)"
         id="g1"><path
           d="m 2.0287857,-7.5680267 c 0,0 0.4473649,0.1130333 0.8463373,0.2467306 0.3989724,0.1336972 0.6181511,0.2790511 0.6181511,0.2790511 0,0 -0.1845622,-0.023137 -0.7287119,-0.1822663 C 2.2202359,-7.3836411 2.0287857,-7.5680267 2.0287857,-7.5680267 Z m 4.4821258,2.3521534 -2.745121,-0.9028539 c 0,0 0.8608197,0.1714928 1.4357002,0.3429856 0.5748806,0.1716694 1.3094208,0.5598683 1.3094208,0.5598683 z m 0.3205556,1.8025289 c 0,0 -0.056693,-0.397383 -0.368948,-0.657183 -0.3122546,-0.2598001 -0.6746679,-0.2705737 -0.8493397,-0.3820175 -0.1746719,-0.1112672 -0.52013,-0.5125356 -0.8398025,-0.5460924 -0.3194959,-0.03338 -0.2970658,0.2481436 -0.1676073,0.364356 0.1296352,0.1162124 0.4895757,0.5229559 0.4895757,0.5229559 0,0 -0.064818,0.031261 -0.3889053,0.02243 -0.3240879,-0.00901 -0.5475054,-0.1587765 -0.5475054,-0.1587765 0,0 0.2099948,0.3018344 0.5831815,0.3083691 0.3733633,0.00671 0.4828644,-0.062522 0.4828644,-0.062522 0,0 -0.044683,-0.1608959 -0.2592703,-0.3620599 -0.2145867,-0.2011641 -0.3419259,-0.3329186 -0.3173764,-0.4289969 0.024549,-0.096255 0.1497692,-0.1342272 0.4000321,0.060226 0.2502629,0.1944528 0.5007024,0.4023282 0.8447477,0.5275479 0.3442219,0.1250432 0.7682736,0.3163168 0.9383535,0.7917633 z m 1.4567173,-1.8025289 2.7451206,-0.9028539 c 0,0 -0.860819,0.1714928 -1.4356998,0.3429856 -0.5748806,0.1716694 -1.3094208,0.5598683 -1.3094208,0.5598683 z m -0.3205555,1.8025289 c 0,0 0.056693,-0.397383 0.3689479,-0.657183 0.3122547,-0.2598001 0.6746679,-0.2705737 0.8493397,-0.3820175 0.1746719,-0.1112672 0.5201301,-0.5125356 0.8398025,-0.5460924 0.319496,-0.03338 0.297066,0.2481436 0.167607,0.364356 -0.129635,0.1162124 -0.4895754,0.5229559 -0.4895754,0.5229559 0,0 0.064818,0.031261 0.3889054,0.02243 0.324088,-0.00901 0.547505,-0.1587765 0.547505,-0.1587765 0,0 -0.209994,0.3018344 -0.583181,0.3083691 -0.3731869,0.00671 -0.4826879,-0.062522 -0.4826879,-0.062522 0,0 0.044507,-0.1608959 0.2590936,-0.3620599 0.2145863,-0.2011641 0.3419263,-0.3329186 0.3173763,-0.4289969 -0.02455,-0.096255 -0.149769,-0.1342272 -0.4000319,0.060226 -0.2502629,0.1944528 -0.5005258,0.4023282 -0.8447478,0.5275479 -0.3442218,0.1250432 -0.7680969,0.3163168 -0.9383534,0.7917633 z M 7.3996363,-11.889963 c 0.2691607,0 0.5340826,0.01854 0.7937061,0.05369 l -0.231012,1.835379 0.5785896,-1.777626 c 0.1344037,0.02649 0.2670413,0.05758 0.397736,0.09308 L 8.3932701,-9.7259042 9.341514,-11.5604 c 0.2451411,0.08601 0.483041,0.187565 0.71211,0.30413 l -1.2069842,2.6004738 1.5962432,-2.3837678 c 0.253265,0.153832 0.493638,0.326561 0.719704,0.515892 l -1.5504994,2.0835223 1.8431504,-1.8216033 c 0.06994,0.06694 0.138289,0.13564 0.204873,0.206109 l -1.8918961,2.1282065 2.1811901,-1.7986433 c 0.0634,0.077711 0.12469,0.1570104 0.184033,0.2380765 l -1.064633,0.8917272 1.194268,-0.7084012 c 0.04203,0.062168 0.08266,0.125573 0.122394,0.1895075 l -2.282744,1.5148236 2.456003,-1.2174046 c 0.08089,0.1488861 0.155068,0.302011 0.223064,0.4583149 l -2.164942,1.0254245 2.276916,-0.7486694 c 0.240196,0.6405813 0.371774,1.3343235 0.371774,2.0587966 0,2.8842934 -2.08158,5.2821901 -4.8242287,5.7738852 -0.039915,-0.32514755 -0.1534781,-1.2756874 -0.170963,-1.7110424 -0.021547,-0.5298439 0.2246538,-0.9404729 0.8196685,-1.1395176 0.594838,-0.1990446 1.3281422,-0.3933207 1.5596832,-0.4705013 0.231542,-0.077181 0.308723,-0.2094649 0.369302,-0.385903 0.06076,-0.176438 0.523662,-1.1905591 0.589892,-1.3173684 0.06605,-0.1268093 -0.110207,-0.2590936 -0.325147,-0.033027 -0.215117,0.22589 -0.430057,0.6614217 -0.430057,0.6614217 l 0.584595,-1.7334725 -0.218119,-0.2301288 c 0,0 -0.512889,0.1250431 -1.6114321,0.4199896 C 8.510189,-5.89478 7.8316357,-5.547379 7.8316357,-5.547379 c 0,0 0.4403002,-0.3917312 1.252021,-0.6543571 0.8118974,-0.2624494 1.7447763,-0.4886927 1.7447763,-0.4886927 l -0.448248,-0.3512865 c -1.3609927,0.2260667 -2.0960627,0.8318549 -2.0960627,0.8318549 0.7915867,-0.4482479 2.2212817,-0.5854775 2.2212817,-0.5854775 0,0 -0.6421704,0.1573636 -1.5953595,0.4563722 -0.9531891,0.2988319 -1.3569301,0.6541805 -1.3569301,0.6541805 0,0 0.3754827,-0.4724441 0.6946253,-0.7068117 0.318966,-0.234191 1.0257777,-0.5452093 1.0257777,-0.5452093 C 8.0619411,-6.5530225 7.645837,-5.983617 7.645837,-5.983617 7.7509227,-6.2299944 8.1790366,-6.6944909 8.7767004,-6.9286818 9.374541,-7.1628728 10.036846,-7.1992554 10.036846,-7.1992554 10.008587,-7.3285373 9.8874298,-7.4657669 9.8874298,-7.4657669 c 0,0 -0.835917,0.084775 -1.5388432,0.4523101 -0.7027496,0.367535 -0.9489503,0.9369405 -0.9489503,0.9369405 0,0 -0.2463774,-0.5694055 -0.949127,-0.9369405 -0.7027495,-0.367535 -1.5388432,-0.4523101 -1.5388432,-0.4523101 0,0 -0.1211576,0.1372296 -0.1494159,0.2665115 0,0 0.6623048,0.036383 1.2601453,0.2705736 0.5976638,0.2341909 1.0257777,0.6986874 1.1308634,0.9450648 0,0 -0.4161041,-0.5694055 -1.6276804,-0.9531891 0,0 0.7068118,0.3110183 1.0257778,0.5452093 0.3191426,0.2343676 0.6948019,0.7068117 0.6948019,0.7068117 0,0 -0.4039177,-0.3553486 -1.3571067,-0.6541805 -0.9531892,-0.2990086 -1.5953599,-0.4563722 -1.5953599,-0.4563722 0,0 1.4296953,0.1372296 2.2212821,0.5854775 0,0 -0.7348935,-0.6057882 -2.0960623,-0.8318549 l -0.448248,0.3512865 c 0,0 0.9328785,0.2262433 1.7447759,0.4886927 0.8117208,0.2626259 1.252021,0.6543571 1.252021,0.6543571 0,0 -0.6785534,-0.347401 -1.7770963,-0.6421707 C 4.0918211,-6.4844961 3.5789322,-6.6095392 3.5789322,-6.6095392 l -0.218119,0.2301288 0.5845943,1.7334725 c 0,0 -0.2149399,-0.4355317 -0.4300565,-0.6614217 -0.21494,-0.2260667 -0.3912014,-0.093782 -0.3251475,0.033027 0.06623,0.1268093 0.5291373,1.1409304 0.5898928,1.3173684 0.060579,0.1764381 0.1377594,0.3087224 0.3693011,0.385903 0.2315418,0.077181 0.9648457,0.2714567 1.5596837,0.4705013 0.5950147,0.1990447 0.8412155,0.6096737 0.8196685,1.1395176 -0.017485,0.435355 -0.131048,1.38589485 -0.170963,1.7110424 -2.7426484,-0.4916951 -4.8242283,-2.8895918 -4.8242283,-5.7738852 0,-0.7244731 0.1315779,-1.4182153 0.3717738,-2.0587966 L 4.1824244,-7.3340124 2.0173058,-8.3594369 C 2.0853024,-8.5157408 2.1594805,-8.6688657 2.24037,-8.8177518 L 4.6963729,-7.6003472 2.413629,-9.1151708 C 2.453367,-9.1791058 2.493989,-9.24251 2.5360229,-9.3046783 L 3.730291,-8.5962771 2.665658,-9.4880043 c 0.059343,-0.081066 0.1206278,-0.160366 0.1840325,-0.2382531 L 5.030881,-7.9274375 3.1389852,-10.055644 c 0.066584,-0.07047 0.1349336,-0.139172 0.204873,-0.206286 l 1.8431501,1.8217803 -1.5503231,-2.0835223 c 0.2260667,-0.189331 0.4664392,-0.36206 0.719528,-0.515892 L 5.9524561,-8.6557962 4.7454718,-11.25627 c 0.2290691,-0.116565 0.466969,-0.218119 0.7121101,-0.30413 l 0.9482439,1.8344958 -0.5453859,-1.9595388 c 0.1306948,-0.0355 0.2633324,-0.06658 0.3977361,-0.09308 l 0.5787661,1.777626 -0.2311885,-1.835379 c 0.2596235,-0.03515 0.5245454,-0.05369 0.7938827,-0.05369 z m -1.8549834,3.933914 h 3.533e-4 c 0.00795,-0.1849156 0.1261028,-0.3329186 0.2733994,-0.3429857 v -0.00106 c -0.1472966,-0.00989 -0.2654518,-0.15807 -0.2733994,-0.3429855 h -7.065e-4 c -0.00795,0.1849155 -0.1261028,0.3330951 -0.2735761,0.3429855 v 0.00106 c 0.1474733,0.010067 0.2656284,0.1580701 0.2735761,0.3429857 z m 0.6052583,-1.2793964 h 1.766e-4 c 0.00601,-0.1388191 0.094666,-0.2500863 0.2054028,-0.2575041 v -8.83e-4 C 6.2447533,-9.5012504 6.1560928,-9.6125176 6.1500878,-9.7513367 H 6.149558 c -0.006,0.1388191 -0.094665,0.2500863 -0.2054028,0.2575042 v 8.83e-4 c 0.1107373,0.00742 0.1993979,0.118685 0.2054028,0.2575041 z M 5.4037145,-10.56606 h 3.532e-4 c 0.00583,-0.138819 0.094665,-0.250086 0.2054028,-0.257504 v -8.83e-4 c -0.1107374,-0.0074 -0.1995745,-0.118685 -0.2054028,-0.257504 h -7.065e-4 c -0.006,0.138819 -0.094665,0.250086 -0.2054027,0.257504 v 8.83e-4 c 0.1107373,0.0074 0.1993979,0.118685 0.2054027,0.257504 z m -1.3371493,-0.0627 c 0,0 0.2839963,0.265098 0.5708184,0.624862 0.2866456,0.3597644 0.4788023,0.7114041 0.4788023,0.7114041 0,0 -0.7682736,-0.7709231 -1.0496207,-1.3362661 z m 8.7037448,3.0607313 c 0,0 -0.447365,0.1130333 -0.846337,0.2467306 -0.398972,0.1336972 -0.618151,0.2790511 -0.618151,0.2790511 0,0 0.184562,-0.023137 0.728888,-0.1822663 0.54415,-0.1591298 0.7356,-0.3435154 0.7356,-0.3435154 z M 9.254443,-7.956049 H 9.2540898 C 9.2461421,-8.1409646 9.1279869,-8.2889676 8.9806903,-8.2990347 v -0.00106 c 0.1472966,-0.00989 0.2654518,-0.15807 0.2733995,-0.3429855 h 8.83e-4 c 0.00795,0.1849155 0.1259262,0.3330951 0.2733995,0.3429855 v 0.00106 C 9.380899,-8.2889676 9.2629205,-8.1409646 9.2549728,-7.956049 Z M 8.6493613,-9.2354454 h -3.532e-4 c -0.006,-0.1388191 -0.094665,-0.2500863 -0.2054028,-0.2575041 v -8.83e-4 c 0.1107373,-0.00742 0.1993979,-0.1186851 0.2054028,-0.2575042 h 5.298e-4 c 0.006,0.1388191 0.094665,0.2500863 0.2054028,0.2575042 v 8.83e-4 c -0.1107373,0.00742 -0.1993979,0.118685 -0.2054028,0.2575041 z M 9.3953815,-10.56606 h -1.766e-4 c -0.00601,-0.138819 -0.094842,-0.250086 -0.2054029,-0.257504 v -8.83e-4 c 0.1105608,-0.0074 0.1993979,-0.118685 0.2054029,-0.257504 h 5.298e-4 c 0.006,0.138819 0.094665,0.250086 0.2054028,0.257504 v 8.83e-4 c -0.1107373,0.0074 -0.1993979,0.118685 -0.2054028,0.257504 z m 1.3371495,-0.0627 c 0,0 -0.283997,0.265098 -0.570819,0.624862 -0.2866452,0.3597644 -0.4788019,0.7114041 -0.4788019,0.7114041 0,0 0.7682739,-0.7709231 1.0496209,-1.3362661 z m -3.3328947,5.3346445 c 0.3025408,0 0.5476819,0.084245 0.5476819,0.1880945 0,0.104026 -0.2451411,0.1882712 -0.5476819,0.1882712 -0.3025409,0 -0.5478586,-0.084245 -0.5478586,-0.1882712 0,-0.1038493 0.2453177,-0.1880945 0.5478586,-0.1880945"
           fill="#225777"
           fill-rule="evenodd"
           id="path1"
           style="fill:#003ca5;fill-opacity:1" /></g><g
         clip-path="url(#SvgjsClipPath1000ca824a3f-9e89-432f-b759-7e5150e49e8e)"
         id="g2"
         style="fill:#ff0000;fill-opacity:1"><path
           d="m 11.446937,-4.930464 h 1.716694 c -0.04327,0.2288925 -0.09979,0.4531931 -0.168667,0.6720186 h -1.850391 c 0.08866,-0.2031068 0.206639,-0.46379 0.302364,-0.6720186 z m -0.49717,0 h 0.06128 c -0.09325,0.1547144 -0.157364,0.2845261 -0.157364,0.2845261 z m -7.1617231,0 h 0.061285 l 0.096078,0.2845261 c 0,0 -0.064111,-0.1298117 -0.157363,-0.2845261 z m -2.1525789,0 h 1.7166941 c 0.095725,0.2082286 0.2137036,0.4689118 0.3023642,0.6720186 H 1.8041319 C 1.7352522,-4.4772709 1.6787355,-4.7015715 1.635465,-4.930464"
           fill="#173054"
           fill-rule="evenodd"
           id="path2"
           style="fill:#ff0000;fill-opacity:1" /></g><g
         clip-path="url(#SvgjsClipPath1000ca824a3f-9e89-432f-b759-7e5150e49e8e)"
         id="g3"
         style="fill:#ff0000"><path
           d="m 10.920449,-3.7543873 h 1.889776 c -0.09749,0.231895 -0.209288,0.4563722 -0.334508,0.6720186 H 9.0382667 c 0.016955,-0.00618 0.034087,-0.012186 0.051748,-0.018191 0.594838,-0.1990446 1.3281423,-0.3933207 1.5596833,-0.4705013 0.131755,-0.043977 0.213528,-0.1057922 0.270751,-0.1833263 z m -8.9315782,0 h 1.8897764 c 0.057223,0.077534 0.1389958,0.1393489 0.2707502,0.183326 0.2315418,0.077181 0.9648457,0.2714567 1.5596837,0.4705013 0.017661,0.006 0.034793,0.01201 0.051748,0.018191 H 2.3235555 C 2.1981591,-3.2980151 2.0863621,-3.5224923 1.9888708,-3.7543873"
           fill="#3a868f"
           fill-rule="evenodd"
           id="path3"
           style="fill:#ff0000;fill-opacity:1" /></g><g
         clip-path="url(#SvgjsClipPath1000ca824a3f-9e89-432f-b759-7e5150e49e8e)"
         id="g4"
         style="fill:#ff0000"><path
           d="m 8.401571,-2.5783105 h 3.745643 c -0.173259,0.2382531 -0.363826,0.4629069 -0.570112,0.6720186 H 8.2728189 c -8.83e-4,-0.018898 -0.00177,-0.037266 -0.00247,-0.05475 -0.00936,-0.231012 0.032144,-0.4392406 0.1312247,-0.6172681 z m -5.7495123,0 H 6.397525 c 0.099081,0.1780275 0.1405851,0.3862561 0.1312246,0.6172681 -7.065e-4,0.017485 -0.00159,0.035853 -0.00247,0.05475 H 3.2219941 C 3.0158848,-2.1154036 2.825141,-2.3400574 2.6520587,-2.5783105"
           fill="#173054"
           fill-rule="evenodd"
           id="path4"
           style="fill:#ff0000;fill-opacity:1" /></g><g
         clip-path="url(#SvgjsClipPath1000ca824a3f-9e89-432f-b759-7e5150e49e8e)"
         id="g5"
         style="fill:#ff0000"><path
           d="m 8.3130871,-1.4022338 h 2.6988479 c -0.333802,0.2613896 -0.696568,0.48727973 -1.0826475,0.67219524 H 8.3844394 C 8.3604198,-0.93985672 8.3344574,-1.1791695 8.3130871,-1.4022338 Z m -4.5259263,0 h 2.6988481 c -0.02137,0.2230643 -0.047333,0.46237708 -0.071352,0.67219524 H 4.8698085 C 4.4837289,-0.91495407 4.1209625,-1.1408442 3.7871608,-1.4022338"
           fill="#3a868f"
           fill-rule="evenodd"
           id="path5"
           style="fill:#ff0000;fill-opacity:1" /></g><g
         clip-path="url(#SvgjsClipPath1000ca824a3f-9e89-432f-b759-7e5150e49e8e)"
         id="g6"><path
           d="m 7.3996363,-12.562158 c 3.5390037,0 6.4081077,2.7150962 6.4081077,6.0642393 0,0.7152891 -0.131224,1.4014369 -0.37142,2.0384859 0.129105,-0.499996 0.197985,-1.0241882 0.197985,-1.5644524 0,-3.4432786 -2.791394,-6.2346728 -6.2346727,-6.2346728 -3.4434552,0 -6.2348493,2.7913942 -6.2348493,6.2346728 0,0.5402642 0.06888,1.0644564 0.197985,1.5644524 -0.2401959,-0.637049 -0.37142055,-1.3231968 -0.37142055,-2.0384859 0,-3.3491431 2.86910445,-6.0642393 6.40828485,-6.0642393"
           fill="#173054"
           fill-rule="evenodd"
           id="path6"
           style="fill:#003ca5;fill-opacity:1" /></g><g
         clip-path="url(#SvgjsClipPath1000ca824a3f-9e89-432f-b759-7e5150e49e8e)"
         id="g7"
         style="fill:#ffcc00"><path
           d="m 7.159617,-10.346881 c 0,0 0.1527716,0.223594 0.09078,0.5245453 -0.061992,0.3011279 -0.1460603,0.3963232 -0.070823,0.5312567 0,0 -0.1969252,-0.1395255 -0.061992,-0.4581383 0,0 -0.1903905,0.011127 -0.3385702,0.3232048 -0.1483563,0.312078 -0.050865,0.609497 0.035853,0.7553807 0,0 -0.1441176,-0.090427 -0.1865051,-0.2198852 0,0 -0.094312,0.2069923 -0.048039,0.4581383 0.046096,0.2513226 0.3360977,0.6647774 0.7725124,0.6328102 0,0 -0.2031068,-0.1487095 -0.2463774,-0.4063902 -0.043271,-0.2578574 0.1446474,-0.3504034 0.2202384,-0.5081203 0.075414,-0.1578935 0.03285,-0.3544655 -0.030731,-0.4153976 0,0 0.2211215,0.096785 0.3758359,0.4173403 0.1547144,0.3205556 0.017485,0.7403685 -0.1797937,0.8950829 0,0 0.2935335,0.062698 0.5738209,-0.2622727 0.2801108,-0.3249709 0.1204512,-0.8193152 0.1204512,-0.8193152 0,0 -0.00424,0.1213343 -0.1729057,0.1967487 0,0 0.1100309,-0.1580701 0.1050857,-0.4945209 -0.00512,-0.3362743 -0.3263838,-0.5372617 -0.3263838,-0.5372617 0,0 0.067467,0.16955 -0.051042,0.302011 0,0 0.03391,-0.205756 -0.12416,-0.5104163 C 7.4589788,-10.246741 7.159617,-10.346881 7.159617,-10.346881 Z m 0.2400193,-0.422639 h -5.299e-4 c -0.00795,-0.184739 -0.1261028,-0.332918 -0.2733994,-0.342809 v -0.0011 c 0.1472966,-0.01007 0.2654518,-0.158246 0.2733994,-0.342985 h 8.831e-4 c 0.00795,0.184739 0.1261028,0.332918 0.2733995,0.342985 v 0.0011 c -0.1472967,0.0099 -0.2654518,0.15807 -0.2733995,0.342809 z"
           fill="#ececd9"
           fill-rule="evenodd"
           id="path7"
           style="fill:#ffcc00;fill-opacity:1" /></g></g><g
       id="g9" /></g><defs
     id="defs12"><clipPath
       id="SvgjsClipPath1001"><path
         d="M 0.99135145,-12.562158 H 13.807744 V -0.25 H 0.99135145 Z"
         id="path11" /></clipPath><clipPath
       id="SvgjsClipPath1000ca824a3f-9e89-432f-b759-7e5150e49e8e"><path
         d="M 0.99135145,-12.562158 H 13.807744 V -0.25 H 0.99135145 Z"
         id="path12" /></clipPath></defs><path
     style="fill:none;fill-opacity:1;stroke-width:4.1;stroke-dasharray:none;paint-order:fill markers stroke"
     d="m 8.3270728,15.704289 c 1.6939102,1.298137 1.6939102,1.298137 1.6939102,1.298137 z"
     id="path13" /><path
     style="fill:#ff0000;fill-opacity:1;stroke-width:12;stroke-dasharray:none;paint-order:stroke fill markers"
     d="M 10.242616,16.527498 Z"
     id="path14" /></svg>
