<svg width="91" height="106" viewBox="0 0 91 106" fill="none" xmlns="http://www.w3.org/2000/svg">
  <path fill-rule="evenodd" clip-rule="evenodd" d="M38.4271 74.9746V78.532C37.7231 78.2853 37.0257 78.0226 36.3297 77.7306C36.0671 77.616 35.8057 77.4986 35.5471 77.3786L38.4271 74.9746ZM81.7524 94.7026C82.203 94.0946 82.6777 93.404 82.8564 92.988L73.5764 87.484L81.0897 80.5093L75.5457 76.0133L70.3217 84.8453L70.3177 84.8493L66.3804 81.6586L67.2404 80.392L68.2364 78.6373L69.0804 76.8386L69.7657 75.028L70.2951 73.2253L70.6724 71.4493L70.8964 69.7173L70.9711 68.068L70.851 65.7173L70.5044 63.512L69.9431 61.428L69.1844 59.464C68.7324 58.5173 68.2537 57.632 67.7137 56.736C67.1337 55.8666 66.5364 55.0533 65.8871 54.24L64.7924 53.024L74.2631 45.132L90.2524 30.3147L72.3537 42.7973L62.4604 50.7973C62.0244 50.4147 61.5817 50.04 61.1204 49.6826C59.8697 48.7213 58.6004 47.8226 57.2777 46.9693C55.3257 45.7213 53.3084 44.5906 51.2631 43.512V35.6813H79.2164V24.12H51.2631V19.9333C51.9044 20.1693 52.539 20.424 53.175 20.7066C54.3417 21.236 55.4617 21.8293 56.5684 22.4827L58.1831 23.4546L66.6991 15.1146L64.7697 13.1533C63.0004 11.4933 61.0164 10.14 58.8684 9.02132C56.4604 7.78798 53.8977 6.90665 51.2631 6.35065V0.154648H38.4271V6.16396C37.8377 6.28262 37.2497 6.41864 36.6617 6.5733C35.7204 6.8253 34.8244 7.1453 33.8991 7.47197L32.2404 8.20264L30.6617 9.04797L29.1657 10.0026L27.7617 11.068L26.4484 12.236L25.2364 13.5093L24.1271 14.88L23.1257 16.3453L22.2364 17.9026C21.6644 19.1213 21.1057 20.3213 20.7097 21.616C20.4631 22.444 20.2484 23.28 20.0444 24.12H10.6351V35.6813H20.4884C20.7551 36.3186 21.0351 36.9493 21.3524 37.5586C21.8924 38.5786 22.5351 39.4946 23.2111 40.4226C23.8951 41.252 24.6031 42.04 25.3831 42.788C29.1737 46.3626 33.8057 48.8533 38.4271 51.2026V59.0893L18.2911 42.7973L0.393738 30.3147L16.3817 45.132L38.4271 63.4946V70.212L31.9711 75.436C31.7444 75.2946 31.5177 75.1493 31.2924 75.0026C28.8444 73.3893 26.6711 71.4573 24.6844 69.3026L22.8351 67.2253L15.1204 75.992C13.5951 77.588 11.3217 79.0826 9.55773 80.5093L17.0697 87.484L7.78973 92.988C7.96706 93.404 8.4444 94.0933 8.89373 94.7026C8.22973 94.3653 7.56574 94.332 7.13374 94.684C6.41774 95.2626 6.59507 96.6666 7.5284 97.8186C8.46307 98.972 9.8004 99.4333 10.5151 98.8533C10.9484 98.504 11.0551 97.848 10.8631 97.1306C11.3684 97.7013 11.9524 98.3186 12.3257 98.5813L19.6271 90.6373L24.9017 99.4266L30.4457 94.9333L22.8817 87.9986L22.8444 87.952L25.3831 85.8493C26.6631 86.704 28.0004 87.456 29.3484 88.208C31.0431 89.056 32.7471 89.828 34.5497 90.4333C35.5511 90.7613 36.5511 91.0653 37.5777 91.3186L38.4271 91.5053V105.487H51.2631V91.564C51.8564 91.4306 52.4457 91.288 53.0284 91.1186C54.6377 90.6373 56.139 90.0333 57.6577 89.296L59.6871 88.1226L61.539 86.7986C62.3564 86.1226 63.1164 85.436 63.8697 84.6946L67.8031 87.952L67.7657 87.9986L60.2031 94.9333L65.7444 99.4266L71.0204 90.6373L78.319 98.5813C78.6937 98.3173 79.2804 97.7 79.787 97.128C79.5937 97.8466 79.6964 98.5026 80.1297 98.8533C80.8457 99.4333 82.1817 98.972 83.1177 97.8186C84.051 96.6666 84.2284 95.2626 83.5137 94.684C83.0804 94.332 82.415 94.3666 81.7524 94.7026ZM21.1204 82.6253C21.4391 82.8853 21.7564 83.1426 22.0751 83.396L20.3284 84.8493L20.3244 84.8453L15.9924 77.52C16.2871 77.8626 16.5817 78.2013 16.8817 78.536C18.2191 79.9866 19.6377 81.3293 21.1204 82.6253ZM54.4444 76.832L54.3097 76.9626C53.7991 77.344 53.2937 77.7106 52.7311 78.012C52.2471 78.2613 51.7644 78.4946 51.2631 78.7V74.1946L54.4444 76.832ZM54.9337 61.2453L55.7604 62.1613L56.7057 63.536L57.4004 64.984L57.8311 66.5306L57.9804 68.2026L57.9324 69.4733L57.7951 70.6453L57.5764 71.7186L57.2844 72.7L56.923 73.5946L56.7711 73.8853L51.2631 69.4373V64.292L54.9337 61.2453ZM51.2631 58.18C51.6364 58.436 51.9991 58.6973 52.3537 58.9666L51.2631 59.856V58.18ZM22.3591 81.1573L23.8417 82.3666C24.6671 82.9986 25.5031 83.604 26.3617 84.1973L28.2324 85.3853L30.2457 86.5106L31.3057 87.04L32.3991 87.5426L33.5271 88.016L34.6857 88.4533C35.9337 88.8733 37.2031 89.288 38.4991 89.5546V80.592C37.1671 80.1666 35.8884 79.652 34.6191 79.0706C33.6924 78.628 32.7951 78.156 31.9044 77.648C31.1524 77.2 30.4204 76.736 29.6937 76.2453C28.9364 75.7146 28.2044 75.168 27.4791 74.5933L26.3791 73.6693C25.1257 72.5493 23.9497 71.3853 22.8444 70.1213L17.4417 76.2613C18.9391 78.0373 20.6097 79.6373 22.3591 81.1573ZM23.2111 36.9693L23.9191 38.1333L24.7284 39.2453C25.1751 39.7906 25.6351 40.312 26.1204 40.8266C26.6364 41.3386 27.1617 41.8306 27.7084 42.3133C28.2817 42.7933 28.8657 43.2586 29.4657 43.7146C30.3031 44.3226 31.1551 44.9027 32.0297 45.4653C33.1684 46.1747 34.3231 46.8493 35.5004 47.504C39.4844 49.6733 43.6057 51.5813 47.6031 53.7346C48.4804 54.2146 49.3524 54.7106 50.2164 55.2226C51.0564 55.736 51.875 56.2706 52.6924 56.8253L53.5644 57.46L54.3964 58.1146L55.1871 58.7893L55.9297 59.488L56.6244 60.2133L57.2644 60.9666L57.8457 61.752L58.3657 62.568L58.8177 63.42L59.1991 64.3053L59.5004 65.228L59.7217 66.184L59.8564 67.1746L59.9017 68.196L59.8484 69.6213L59.6937 70.9493L59.4404 72.1866L59.0977 73.336L58.6684 74.3973L58.1631 75.3733L57.5871 76.2653L56.9497 77.0733L56.2577 77.8026L55.5217 78.4533L54.7484 79.0306L53.9484 79.5373C53.0897 80 52.2257 80.4333 51.2964 80.7346V89.584C52.0937 89.416 52.8831 89.1573 53.6631 88.912L54.7444 88.5133L55.7817 88.072L56.7777 87.5893L57.7324 87.068L58.6457 86.5093L59.5177 85.916L60.3511 85.2906L61.1431 84.636L61.8964 83.952L62.6097 83.2426L63.2844 82.5093L63.9204 81.7573L64.5191 80.984L65.0777 80.196L65.5991 79.3933L66.5297 77.7546L67.3111 76.0906L67.9444 74.416L68.4324 72.7546L68.7777 71.1266L68.9817 69.5506L69.0497 68.0493L69.0231 66.9666L68.9417 65.916L68.8084 64.8987L68.6257 63.912L68.3951 62.9546L68.1177 62.0253L67.7964 61.124L67.4311 60.248L67.0244 59.3973L66.5777 58.5706L66.0924 57.7653L65.5711 56.9827L65.0137 56.2226L64.4204 55.4813L63.1417 54.0586L61.7457 52.7133L60.2471 51.4346C59.4524 50.8133 58.6537 50.2186 57.8351 49.6386C56.9871 49.064 56.1364 48.512 55.2724 47.9706C54.0937 47.2613 52.9057 46.58 51.7057 45.9186C48.7817 44.3466 45.8071 42.8893 42.8484 41.396C40.1124 40.0013 37.3697 38.576 34.9057 36.7373C34.4857 36.412 34.0817 36.0786 33.6844 35.728H22.6031C22.7724 36.1533 23.0031 36.568 23.2111 36.9693ZM49.8484 17.436C50.6057 17.6626 51.3471 17.904 52.0924 18.1773C53.1031 18.5653 54.0857 18.9933 55.0631 19.468C56.0311 19.9573 56.9737 20.476 57.9017 21.044L63.9871 15.0853C62.5671 13.5906 60.8804 12.3893 59.1191 11.336C58.5177 11 57.9151 10.6826 57.2991 10.3786C56.6057 10.0586 55.9111 9.76265 55.2031 9.48265C54.4137 9.19865 53.6284 8.93997 52.8257 8.70264C51.8271 8.43864 50.8297 8.20265 49.8137 8.02399C48.3191 7.77065 46.8297 7.61198 45.3111 7.54932C44.2324 7.51598 43.1657 7.52663 42.0871 7.59863C41.3484 7.6533 40.6164 7.73598 39.8831 7.84665L38.7364 8.04797C37.8804 8.23331 37.0511 8.44532 36.2057 8.69199L34.6071 9.25865L33.0817 9.92929L31.6337 10.7053L30.2657 11.58L28.9817 12.552L27.7844 13.6173L26.6804 14.7773L25.6684 16.0266L24.7537 17.364L23.9417 18.788L23.2337 20.296L22.6351 21.8853C22.3991 22.6466 22.1857 23.4 22.0057 24.18H31.5697C31.8204 23.46 32.1937 22.7826 32.5671 22.1253L32.9631 21.524L33.3911 20.956L33.8497 20.4213L34.3404 19.9213L34.8604 19.4546L35.4057 19.0226L35.9791 18.6253L36.5751 18.264L37.1964 17.936L37.8377 17.6426L38.5004 17.384L39.8151 16.9853L41.1204 16.724L42.4777 16.5706L43.8791 16.528L45.3217 16.592L46.8004 16.7653C47.5697 16.896 48.3204 17.0493 49.0764 17.228L49.8484 17.436ZM38.4271 36.8026C37.8471 36.4466 37.2764 36.0746 36.7217 35.6813H38.4271V36.8026ZM33.6791 24.12H38.4271V19.492C38.1244 19.628 37.8257 19.7733 37.5231 19.9346C37.0177 20.24 36.5644 20.5546 36.0977 20.924C35.6591 21.3173 35.2751 21.7093 34.8871 22.1613C34.4097 22.796 34.0204 23.4186 33.6791 24.12Z" fill="#FFFFFF"/>
</svg>
